<mxfile host="Electron" agent="Mozilla/5.0 (Macintosh; Intel Mac OS X 10_15_7) AppleWebKit/537.36 (KHTML, like Gecko) draw.io/25.0.2 Chrome/128.0.6613.186 Electron/32.2.5 Safari/537.36" version="25.0.2">
  <diagram id="pNlgbZmsKTASvtVl8QK2" name="Seite-1">
    <mxGraphModel dx="1114" dy="824" grid="1" gridSize="10" guides="1" tooltips="1" connect="1" arrows="1" fold="1" page="1" pageScale="1" pageWidth="827" pageHeight="1169" math="0" shadow="0">
      <root>
        <mxCell id="0" />
        <mxCell id="1" parent="0" />
        <mxCell id="Krma67j-ZGC7SuQiK4NY-20" value="" style="rounded=0;whiteSpace=wrap;html=1;" parent="1" vertex="1">
          <mxGeometry x="190" y="270" width="170" height="550" as="geometry" />
        </mxCell>
        <mxCell id="Krma67j-ZGC7SuQiK4NY-1" value="/dev/nvme0n1" style="rounded=0;whiteSpace=wrap;html=1;" parent="1" vertex="1">
          <mxGeometry x="200" y="280" width="150" height="60" as="geometry" />
        </mxCell>
        <mxCell id="Krma67j-ZGC7SuQiK4NY-3" value="/dev/nvme0n1p1: 1 GByte&lt;br&gt;/boot" style="rounded=0;whiteSpace=wrap;html=1;" parent="1" vertex="1">
          <mxGeometry x="200" y="350" width="150" height="60" as="geometry" />
        </mxCell>
        <mxCell id="Krma67j-ZGC7SuQiK4NY-5" value="/dev/nvme0n1p2: 1 GByte&lt;br&gt;/boot/efi" style="rounded=0;whiteSpace=wrap;html=1;" parent="1" vertex="1">
          <mxGeometry x="200" y="420" width="150" height="60" as="geometry" />
        </mxCell>
        <mxCell id="Krma67j-ZGC7SuQiK4NY-7" value="/dev/nvme0n1p3: 8 GByte&lt;br&gt;Swap" style="rounded=0;whiteSpace=wrap;html=1;" parent="1" vertex="1">
          <mxGeometry x="200" y="490" width="150" height="60" as="geometry" />
        </mxCell>
        <mxCell id="Krma67j-ZGC7SuQiK4NY-9" value="/dev/nvme0n1p4: 200GB&lt;br&gt;PV" style="rounded=0;whiteSpace=wrap;html=1;" parent="1" vertex="1">
          <mxGeometry x="200" y="560" width="150" height="60" as="geometry" />
        </mxCell>
        <mxCell id="Krma67j-ZGC7SuQiK4NY-12" value="VG system" style="rounded=0;whiteSpace=wrap;html=1;" parent="1" vertex="1">
          <mxGeometry x="200" y="630" width="150" height="30" as="geometry" />
        </mxCell>
        <mxCell id="Krma67j-ZGC7SuQiK4NY-13" value="LV root: 200 GByte, /" style="rounded=0;whiteSpace=wrap;html=1;align=center;labelPosition=center;verticalLabelPosition=middle;verticalAlign=middle;" parent="1" vertex="1">
          <mxGeometry x="200" y="670" width="150" height="30" as="geometry" />
        </mxCell>
        <mxCell id="D2QNOiJ_X3-2sq5uS4Nx-1" value="/dev/nvme0n1p5: -1&lt;br&gt;PV" style="rounded=0;whiteSpace=wrap;html=1;" parent="1" vertex="1">
          <mxGeometry x="200" y="710" width="150" height="60" as="geometry" />
        </mxCell>
        <mxCell id="D2QNOiJ_X3-2sq5uS4Nx-2" value="VG cinder-volumes" style="rounded=0;whiteSpace=wrap;html=1;" parent="1" vertex="1">
          <mxGeometry x="200" y="780" width="150" height="30" as="geometry" />
        </mxCell>
      </root>
    </mxGraphModel>
  </diagram>
</mxfile>
